<?xml version="1.0" encoding="iso-8859-1"?>
<!-- Generator: Adobe Illustrator 22.0.1, SVG Export Plug-In . SVG Version: 6.00 Build 0)  -->
<svg version="1.1" xmlns="http://www.w3.org/2000/svg" xmlns:xlink="http://www.w3.org/1999/xlink" x="0px" y="0px"
	 viewBox="0 0 64 64" style="enable-background:new 0 0 64 64;" xml:space="preserve">
<g id="_x31_">
	<g>
		<path style="fill:#AAD15D;" d="M64,7.999c-4.362,1.748-12.361,9.747-19.968,18.908c-9.288,6.787-15.531,20.019-19.175,28.611
			c-0.267-1.059-0.504-2.074-0.718-3.051c-0.252-1.126-0.459-2.207-0.637-3.229c-1.318-7.577-0.778-12.45,0.955-16.583
			c1.141-2.718,2.8-5.125,4.777-7.777C35.137,16.969,55.386,7.163,64,7.999z"/>
		<path style="fill:#AAD15D;" d="M64,7.999c-15.457,12.65,0.924,40.934-37.004,48.051c4.162-8.273,9.297-18.818,16.992-29.083
			c0.015-0.022,0.03-0.037,0.044-0.059C51.639,17.746,59.638,9.747,64,7.999z"/>
		<path style="fill:#90B74B;" d="M64,7.999c-15.457,12.65,0.924,40.934-37.004,48.051c4.162-8.273,9.297-18.818,16.992-29.083
			c0.015-0.022,0.03-0.037,0.044-0.059C51.639,17.746,59.638,9.747,64,7.999z"/>
	</g>
	<g>
		<path style="fill:#AAD15D;" d="M22.235,32.655c-1.733,4.133-2.274,9.006-0.955,16.583c0.178,1.022,0.385,2.103,0.637,3.229
			C10.904,50.964,7.934,47.542,4.305,42.024c-3.999-6.088-5.71-22.604-2.963-28.374C4.556,22.797,16.058,24.538,22.235,32.655z"/>
		<path style="fill:#90B74B;" d="M21.28,49.238C13.585,40.684,1.557,20.094,1.342,13.651c3.214,9.147,14.716,10.887,20.893,19.005
			C20.502,36.788,19.962,41.661,21.28,49.238z"/>
	</g>
</g>
<g id="Layer_1">
</g>
</svg>
